nColumns=28
nRows=22
DataType=double
version=3
OpenSimVersion=4.5
endheader
time	ground_force_1_vx	ground_force_1_vy	ground_force_1_vz	ground_force_1_px	ground_force_1_py	ground_force_1_pz	ground_moment_1_mx	ground_moment_1_my	ground_moment_1_mz	ground_force_2_vx	ground_force_2_vy	ground_force_2_vz	ground_force_2_px	ground_force_2_py	ground_force_2_pz	ground_moment_2_mx	ground_moment_2_my	ground_moment_2_mz	ground_force_3_vx	ground_force_3_vy	ground_force_3_vz	ground_force_3_px	ground_force_3_py	ground_force_3_pz	ground_moment_3_mx	ground_moment_3_my	ground_moment_3_mz
0	-22.50705659389496	176.2416958808899	7.248034235090028	0.299740255766704	1.329616545127432e-17	-0.2171428604644478	0	0.8711509911885198	5.334261364665325e-17	-2.059966791421175	3.204392269253731	2.517737448215485	1.115285652005848	0	0	0	1.523721340701551	9.330102313413338e-17	0.07629627361893654	-1.678494736552238	-0.9918375872075559	1.365636968933623	1.558639218679889e-17	-0.2545451014553868	0	0.1165226856167166	7.134956698428266e-18
0.001	-22.65964634716511	172.8847175836563	7.248034235090028	0.2997352121991396	1.335978343135236e-17	-0.2181818209242691	0	1.256949724916169	7.696597286538661e-17	-1.602196134626865	3.509572707116604	1.907376572489739	1.122739078515275	3.194732899819686e-18	-0.05217394765648322	0	1.460884553371506	8.945337961051129e-17	0.5340669304132462	-1.068133860826492	-0.3814767114818097	1.116287208998169	1.74949161382248e-17	-0.2857136629174296	0	0.2615825292098173	1.601731035548359e-17
0.002	-22.04928547143936	175.9365200996399	7.248034235090028	0.3028620949402468	1.342544297144442e-17	-0.2192541225893334	0	1.22129039901052	7.478246889888136e-17	-1.449605915695429	1.678490079939365	2.670327667146921	1.419182120831287	0	0	0	2.154296077403801	1.319125897804132e-16	-0.8392450399696827	-1.068133860826492	-0.6866571493446828	1.287715406748627	2.449288259351472e-17	-0.3999991280844015	0	-0.04359711037830331	-3.109126251424716e-17
0.003	-22.81223610043526	177.1572381258011	7.248034235090028	0.2987080063489895	1.32063549959252e-17	-0.2156761444217219	0	1.075004897749226	3.740335592441187e-17	-2.517737448215485	3.204392269253731	2.059966791421175	1.172428550668616	-4.665324529424043e-18	0.07619053155035761	-1.13686837721616e-16	1.597836688097571	-1.584755843967113e-17	-0.2288841642439365	0.7629487663507463	-1.449608244001865	1.802	2.449301072854338e-17	-0.400001220688224	0	-0.274663139134077	-1.681826670921558e-17
0.004	-22.35446497797966	173.4950840473175	6.942853797227155	0.297097621389501	1.311890780227916e-17	-0.2142480233715232	0	1.286427752552789	7.87709814749048e-17	-1.754786353558302	2.899211831390858	2.670327667146921	1.169421027271077	-2.578205858189116e-18	0.04210529697189693	0	1.347611613127895	8.251741242554387e-17	0.5340669304132462	0.4577683284878732	-1.602198462933302	2.802005086211281	1.632870703946292e-17	-0.266668022989675	0	-1.887041583906331	-1.15547971779442e-16
0.005	-21.59151434898376	171.0536330938339	6.790263578295718	0.2986619049081318	1.31095109632475e-17	-0.2140945613441337	0	1.220122409143868	7.471095014629973e-17	-1.449605915695429	2.899211831390858	2.822917886078358	1.169421027271077	-6.445514645472789e-18	0.1052632424297423	0	1.589346629982771	9.731941315720165e-17	-0.5340646021068096	0.4577683284878731	-0.07629627361893651	3.002006103453537	3.265741407892583e-17	-0.53333604597935	0	-0.4069108723075276	-2.491610486548355e-17
0.006	-22.20187522470951	171.6639995574951	7.248034235090028	0.3013333292390671	1.314998533445558e-17	-0.2147555579880029	0	1.21559430966577	7.443368401969607e-17	-1.144425477832556	1.678490079939365	2.212557010352612	1.364636590623465	-6.679900897680427e-18	0.1090910604156437	0	2.592645964608832	1.587537790940254e-16	0.07629627361893654	0.152587890625	-0.07629627361893652	2.402009155273438	-2.449330971549075e-17	0.400006103515625	0	-0.2746656537411241	-1.681842068448914e-17
0.007	-22.65964634716511	174.1054356098175	8.16357508301736	0.3028921958824439	1.309438313737902e-17	-0.213847505198982	0	1.289139504336063	7.893702838197826e-17	-2.365147229284048	2.594031393527985	2.212557010352612	1.236294149325751	-2.881524466693956e-18	0.04705886576766764	0	1.715292721490562	1.050313870487084e-16	0.5340669304132462	-1.983675174415112	-0.07629627361893666	1.340462080184793	1.884069787289405e-18	-0.03076919465434716	0	-0.05516765181850949	-3.378044410800665e-18
0.008	-22.35446497797966	175.9365200996399	7.095444016158591	0.2986990419796899	1.329798623437375e-17	-0.2171725961090549	0	1.231970409272493	7.543643091799071e-17	-1.602196134626865	2.594031393527985	2.517737448215485	1.236294149325751	-7.203811166734891e-18	0.1176471644191691	0	1.787997469641203	1.094832689039833e-16	0.3814767114818096	-0.152592547237873	-1.144427806138992	-0.597963380023803	4.898512452361689e-17	-0.7999877933412677	0	2.609248972220237	1.597704201004017e-16
0.009000000000000001	-23.422596976161	175.3261536359787	6.942853797227155	0.2971279332231792	1.323769667858798e-17	-0.2161879929430197	4.547473508864641e-16	0.9513179140126194	5.825142191835458e-17	-1.144425477832556	5.035474896430969	2.670327667146922	1.019181734112599	3.711052622425469e-18	-0.0606060886291337	0	0.9099916726884554	5.572091946043313e-17	0.5340669304132462	2.899211831390858	-0.3814767114818094	1.707263081813232	1.160192636185102e-17	-0.1894738363735362	-3.552713678800501e-18	-0.1068136434214274	-6.54044932606589e-18
0.01	-22.65964634716511	173.8002598285675	6.942853797227155	0.3018437185397776	1.335391872598238e-17	-0.218086043017136	0	1.090731615012537	6.678804905269636e-17	-0.6866548210382462	1.678490079939365	3.128098323941231	1.364636590623465	-8.90653453024057e-18	0.1454547472208582	0	2.030836653026606	1.243528803360079e-16	0.07629627361893654	0.1525878906250001	-1.449608244001865	5.402054931640625	4.89866194309815e-17	-0.80001220703125	0	-5.630661967529704	-3.447786077807995e-16
0.011	-22.65964634716511	174.7158020734787	6.637673359364282	0.3013100396597725	1.334811548483551e-17	-0.2179912688969422	4.547473508864641e-16	1.363436504220049	8.348640753668697e-17	-2.365147229284048	1.983670517802238	2.365147229284048	1.524077302284091	-1.130444526055355e-17	0.184615601305195	0	2.680892656563733	1.64157330535921e-16	0.6866571493446827	0.1525878906250001	-0.6866571493446827	7.202082397460938	-2.449330971549075e-17	0.400006103515625	0	-4.257335561426601	-2.606866184098643e-16
0.012	-22.20187522470951	172.2743511199951	6.637673359364282	0.2981399427357311	1.329864480615783e-17	-0.217183351402492	-4.547473508864641e-16	1.093905209005148	6.698237563893857e-17	-1.907376572489738	1.373309642076492	2.517737448215485	1.534333898466004	-1.360720972679001e-17	0.2222225989773359	0	2.743233610407028	1.679746130149202e-16	0.5340669304132462	-1.068133860826492	-0.9918375872075559	1.202001307873398	1.74949161382248e-17	-0.2857136629174296	0	0.3662149954068087	2.242420109623555e-17
0.013	-22.35446497797966	173.8002598285675	7.095444016158591	0.2960491619266813	1.328940704226686e-17	-0.2170324872693003	0	1.124746260499373	6.887084538867564e-17	-2.365147229284048	0.4577683284878729	2.365147229284048	1.801003051726769	-1.143009492762404e-16	1.866676160927725	0	6.947967172219245	4.254402879019593e-16	0.5340669304132462	-1.373314298689365	0.07629394531249992	1.202001017235358	1.905002902274337e-17	-0.3111105836557404	0	-0.03221356540051768	-5.881593084865141e-17
0.014	-22.96482771635056	173.1898933649063	7.858395576477061	0.2960352381403883	1.33146623120703e-17	-0.2174449371253896	0	1.055977642669042	6.46599820032905e-17	-1.297015696763992	3.814753144979477	2.365147229284049	1.176999985351777	-1.175661644737432e-17	0.1920001171857834	0	1.7334238775074	1.061416001577516e-16	0.6866571493446827	-1.983675174415112	-1.144427806138993	1.20200070424023	2.260883744747286e-17	-0.3692303358521659	0	0.6655272021999611	4.075178789598378e-17
0.015	-21.59151434898376	176.2416958808899	7.400624454021465	0.2987012946865663	1.327495944525382e-17	-0.2167965401044018	0	0.8865949899597474	8.270999526011822e-17	-1.297015696763992	4.425114020705223	3.128098323941231	1.056172337590999	8.445844437960787e-19	-0.01379311070561914	0	0.8871269680328965	5.432086009193915e-17	-0.0762939453125	-1.983675174415112	-0.9918375872075559	1.340462080184793	5.652209361868214e-18	-0.09230758396304146	0	0.2828779748843496	1.73212803245702e-17
0.016	-22.35446497797966	174.1054356098175	7.400624454021465	0.2981595051462605	1.335197756233108e-17	-0.2180543414089229	0	1.253646594104925	7.676371443662889e-17	-1.602196134626865	3.509572707116604	2.822917886078358	1.148826052343517	5.324554833032811e-18	-0.08695657942747205	0	1.407146233350499	8.616285653024715e-17	0.5340669304132462	0.4577683284878731	-0.9918375872075558	2.202002034484512	4.082176759865729e-17	-0.6666700574741875	0	-0.3763900345393056	-2.304724255147612e-17
0.017	-21.89669571816921	175.3261536359787	7.095444016158591	0.2997388993985096	1.325901342104998e-17	-0.2165361217663971	0	1.215369365316551	7.44199101508332e-17	-1.754786353558302	2.594031393527985	2.822917886078358	1.342176597303003	-1.440762233346977e-18	0.02352943288383381	0	2.072533480597643	1.269060746569813e-16	-0.0762939453125	-0.4577729851007461	-0.8392473682761192	-0.1979898276809147	5.71498932852563e-17	-0.9333285862510935	0	1.576759904233321	9.654869848716117e-17
0.018	-22.81223610043526	176.8520623445511	7.553214672952901	0.2987057768857501	1.329254264858851e-17	-0.2170836956066564	0	1.042484376992468	6.383375777224744e-17	-0.8392450399696827	2.899211831390858	2.822917886078358	1.485210754560304	-1.54692351491347e-17	0.2526317818313816	0	2.463929740830872	1.508721835216247e-16	-0.3814743831753731	0.4577683284878731	-0.8392473682761192	2.202002034484512	8.164353519731459e-18	-0.1333340114948375	0	-0.493378249112092	-3.021070467720245e-17
0.019	-22.20187522470951	172.8847175836563	7.095444016158591	0.2981465096352841	1.335978343135236e-17	-0.2181818209242691	0	1.208263625737866	7.398480908930269e-17	-1.602196134626865	3.509572707116604	2.059966791421175	1.174913026171758	6.389465799639374e-18	-0.1043478953129665	0	1.152386944758619	1.842501868855081e-16	1.907378900796175	0.7629487663507463	-2.670329995453358	1.681999633793533	2.449301072854338e-17	-0.400001220688224	0	-0.2136233262598354	-1.308065613636591e-17
0.02	-22.50705659389496	175.3261536359787	6.485083140432845	0.2981723196933114	1.328033016351199e-17	-0.2168842505897745	0	1.324772171420131	8.111889996645759e-17	-1.144425477832556	3.814753144979477	2.670327667146922	1.128999956055331	0	0	0	1.181047329679111	7.231829159665261e-17	0.9918375872075558	1.373309642076492	-0.534066930413246	1.802	1.360720972679001e-17	-0.2222225989773359	0	-0.06951362089963092	-4.256481666593778e-18
0.021	-22.50705659389496	173.1898933649063	7.095444016158591	0.2981497756478619	1.33146623120703e-17	-0.2174449371253896	0	1.173546066228389	7.185897168292823e-17	-2.365147229284048	3.509572707116604	2.975508105009794	1.096652104687033	-2.129821933213125e-18	0.03478263177098882	0	1.480787557625431	9.067208713316055e-17	0.8392473682761192	-0.1525925472378731	0.07629394531249999	-2.397935915041655	-2.449256226180844e-17	0.3999938966706338	0	-0.9155278096315489	-5.605991007978318e-17
